<svg xmlns="http://www.w3.org/2000/svg" width="68" height="86" viewBox="0 0 68 86"><g fill="none"><path fill="#070707" d="M2.224,83 L2.224,80.92 L2.392,80.92 L3.512,83 L5.264,83 L3.992,80.8 C4.39733333,80.6773333 4.70533333,80.4706667 4.916,80.18 C5.12666667,79.8893333 5.232,79.552 5.232,79.168 C5.232,78.8266667 5.152,78.5186667 4.992,78.244 C4.832,77.9693333 4.59466667,77.7533333 4.28,77.596 C3.96533333,77.4386667 3.58133333,77.36 3.128,77.36 L3.128,77.36 L0.656,77.36 L0.656,83 L2.224,83 Z M3,79.848 L2.224,79.848 L2.224,78.672 L3,78.672 C3.208,78.672 3.36666667,78.724 3.476,78.828 C3.58533333,78.932 3.64,79.0746667 3.64,79.256 C3.64,79.448 3.58666667,79.5946667 3.48,79.696 C3.37333333,79.7973333 3.21333333,79.848 3,79.848 L3,79.848 Z M8.648,83.056 C9.176,83.056 9.66133333,82.932 10.104,82.684 C10.5466667,82.436 10.896,82.092 11.152,81.652 C11.408,81.212 11.536,80.7146667 11.536,80.16 C11.536,79.6053333 11.408,79.108 11.152,78.668 C10.896,78.228 10.548,77.8853333 10.108,77.64 C9.668,77.3946667 9.18133333,77.272 8.648,77.272 C8.12,77.272 7.63466667,77.3946667 7.192,77.64 C6.74933333,77.8853333 6.39866667,78.228 6.14,78.668 C5.88133333,79.108 5.752,79.6053333 5.752,80.16 C5.752,80.7146667 5.88133333,81.212 6.14,81.652 C6.39866667,82.092 6.74933333,82.436 7.192,82.684 C7.63466667,82.932 8.12,83.056 8.648,83.056 Z M8.648,81.6 C8.24266667,81.6 7.92533333,81.4706667 7.696,81.212 C7.46666667,80.9533333 7.352,80.6026667 7.352,80.16 C7.352,79.712 7.46666667,79.3586667 7.696,79.1 C7.92533333,78.8413333 8.24266667,78.712 8.648,78.712 C9.048,78.712 9.364,78.8413333 9.596,79.1 C9.828,79.3586667 9.944,79.712 9.944,80.16 C9.944,80.5973333 9.828,80.9466667 9.596,81.208 C9.364,81.4693333 9.048,81.6 8.648,81.6 Z M14.472,83 C15.0586667,83 15.5746667,82.8786667 16.02,82.636 C16.4653333,82.3933333 16.8093333,82.0586667 17.052,81.632 C17.2946667,81.2053333 17.416,80.72 17.416,80.176 C17.416,79.6266667 17.296,79.1386667 17.056,78.712 C16.816,78.2853333 16.4733333,77.9533333 16.028,77.716 C15.5826667,77.4786667 15.064,77.36 14.472,77.36 L14.472,77.36 L12.24,77.36 L12.24,83 L14.472,83 Z M14.352,81.616 L13.808,81.616 L13.808,78.72 L14.352,78.72 C14.8106667,78.72 15.1706667,78.8466667 15.432,79.1 C15.6933333,79.3533333 15.824,79.712 15.824,80.176 C15.824,80.6346667 15.6933333,80.9893333 15.432,81.24 C15.1706667,81.4906667 14.8106667,81.616 14.352,81.616 L14.352,81.616 Z M19.688,83 L19.688,80.92 L19.856,80.92 L20.976,83 L22.728,83 L21.456,80.8 C21.8613333,80.6773333 22.1693333,80.4706667 22.38,80.18 C22.5906667,79.8893333 22.696,79.552 22.696,79.168 C22.696,78.8266667 22.616,78.5186667 22.456,78.244 C22.296,77.9693333 22.0586667,77.7533333 21.744,77.596 C21.4293333,77.4386667 21.0453333,77.36 20.592,77.36 L20.592,77.36 L18.12,77.36 L18.12,83 L19.688,83 Z M20.464,79.848 L19.688,79.848 L19.688,78.672 L20.464,78.672 C20.672,78.672 20.8306667,78.724 20.94,78.828 C21.0493333,78.932 21.104,79.0746667 21.104,79.256 C21.104,79.448 21.0506667,79.5946667 20.944,79.696 C20.8373333,79.7973333 20.6773333,79.848 20.464,79.848 L20.464,79.848 Z M24.976,83 L24.976,77.36 L23.408,77.36 L23.408,83 L24.976,83 Z M28.544,83.04 C29.008,83.04 29.4213333,82.956 29.784,82.788 C30.1466667,82.62 30.4466667,82.4053333 30.684,82.144 C30.9213333,81.8826667 31.1013333,81.6026667 31.224,81.304 L31.224,81.304 L31.224,79.784 L28.296,79.784 L28.296,80.912 L29.872,80.912 C29.6373333,81.408 29.2453333,81.656 28.696,81.656 C28.232,81.656 27.8786667,81.5293333 27.636,81.276 C27.3933333,81.0226667 27.272,80.6533333 27.272,80.168 C27.272,79.736 27.3853333,79.392 27.612,79.136 C27.8386667,78.88 28.1493333,78.752 28.544,78.752 C28.7573333,78.752 28.9426667,78.792 29.1,78.872 C29.2573333,78.952 29.3813333,79.0666667 29.472,79.216 L29.472,79.216 L31.16,79.216 C31.048,78.624 30.76,78.1573333 30.296,77.816 C29.832,77.4746667 29.2453333,77.304 28.536,77.304 C27.9706667,77.304 27.472,77.4253333 27.04,77.668 C26.608,77.9106667 26.2733333,78.2493333 26.036,78.684 C25.7986667,79.1186667 25.68,79.6133333 25.68,80.168 C25.68,80.728 25.7986667,81.2253333 26.036,81.66 C26.2733333,82.0946667 26.6093333,82.4333333 27.044,82.676 C27.4786667,82.9186667 27.9786667,83.04 28.544,83.04 Z M34.632,83.056 C35.16,83.056 35.6453333,82.932 36.088,82.684 C36.5306667,82.436 36.88,82.092 37.136,81.652 C37.392,81.212 37.52,80.7146667 37.52,80.16 C37.52,79.6053333 37.392,79.108 37.136,78.668 C36.88,78.228 36.532,77.8853333 36.092,77.64 C35.652,77.3946667 35.1653333,77.272 34.632,77.272 C34.104,77.272 33.6186667,77.3946667 33.176,77.64 C32.7333333,77.8853333 32.3826667,78.228 32.124,78.668 C31.8653333,79.108 31.736,79.6053333 31.736,80.16 C31.736,80.7146667 31.8653333,81.212 32.124,81.652 C32.3826667,82.092 32.7333333,82.436 33.176,82.684 C33.6186667,82.932 34.104,83.056 34.632,83.056 Z M34.632,81.6 C34.2266667,81.6 33.9093333,81.4706667 33.68,81.212 C33.4506667,80.9533333 33.336,80.6026667 33.336,80.16 C33.336,79.712 33.4506667,79.3586667 33.68,79.1 C33.9093333,78.8413333 34.2266667,78.712 34.632,78.712 C35.032,78.712 35.348,78.8413333 35.58,79.1 C35.812,79.3586667 35.928,79.712 35.928,80.16 C35.928,80.5973333 35.812,80.9466667 35.58,81.208 C35.348,81.4693333 35.032,81.6 34.632,81.6 Z M40.92,83.048 C41.4106667,83.048 41.856,82.9373333 42.256,82.716 C42.656,82.4946667 42.9786667,82.1933333 43.224,81.812 C43.4693333,81.4306667 43.6133333,81.0106667 43.656,80.552 L43.656,80.552 L43.656,79.992 L40.656,79.992 L40.656,80.584 L42.88,80.584 C42.8213333,81.1386667 42.616,81.5786667 42.264,81.904 C41.912,82.2293333 41.464,82.392 40.92,82.392 C40.5306667,82.392 40.18,82.3026667 39.868,82.124 C39.556,81.9453333 39.3106667,81.6906667 39.132,81.36 C38.9533333,81.0293333 38.864,80.6453333 38.864,80.208 C38.864,79.7706667 38.9533333,79.3853333 39.132,79.052 C39.3106667,78.7186667 39.556,78.4626667 39.868,78.284 C40.18,78.1053333 40.5306667,78.016 40.92,78.016 C41.3093333,78.016 41.6506667,78.1053333 41.944,78.284 C42.2373333,78.4626667 42.4613333,78.7146667 42.616,79.04 L42.616,79.04 L43.488,79.04 C43.28,78.5066667 42.948,78.0933333 42.492,77.8 C42.036,77.5066667 41.512,77.36 40.92,77.36 C40.4026667,77.36 39.9306667,77.4813333 39.504,77.724 C39.0773333,77.9666667 38.74,78.3053333 38.492,78.74 C38.244,79.1746667 38.12,79.664 38.12,80.208 C38.12,80.752 38.244,81.24 38.492,81.672 C38.74,82.104 39.0773333,82.4413333 39.504,82.684 C39.9306667,82.9266667 40.4026667,83.048 40.92,83.048 Z M45.032,83 L45.48,81.76 L47.912,81.76 L48.36,83 L49.128,83 L47.12,77.456 L46.28,77.456 L44.264,83 L45.032,83 Z M47.704,81.168 L45.688,81.168 L46.696,78.352 L47.704,81.168 Z M50.736,83 L50.736,80.72 L51.616,80.72 L52.944,83 L53.816,83 L52.416,80.664 C52.8586667,80.568 53.1906667,80.3733333 53.412,80.08 C53.6333333,79.7866667 53.744,79.448 53.744,79.064 C53.744,78.7493333 53.672,78.4693333 53.528,78.224 C53.384,77.9786667 53.1666667,77.784 52.876,77.64 C52.5853333,77.496 52.2293333,77.424 51.808,77.424 L51.808,77.424 L50.008,77.424 L50.008,83 L50.736,83 Z M51.808,80.136 L50.736,80.136 L50.736,78.024 L51.808,78.024 C52.208,78.024 52.5053333,78.1146667 52.7,78.296 C52.8946667,78.4773333 52.992,78.7333333 52.992,79.064 C52.992,79.3893333 52.8933333,79.6493333 52.696,79.844 C52.4986667,80.0386667 52.2026667,80.136 51.808,80.136 L51.808,80.136 Z M57.384,83.048 C57.992,83.048 58.5226667,82.9026667 58.976,82.612 C59.4293333,82.3213333 59.76,81.9093333 59.968,81.376 L59.968,81.376 L59.096,81.376 C58.9413333,81.712 58.7186667,81.9693333 58.428,82.148 C58.1373333,82.3266667 57.7893333,82.416 57.384,82.416 C56.9946667,82.416 56.6453333,82.3253333 56.336,82.144 C56.0266667,81.9626667 55.784,81.7053333 55.608,81.372 C55.432,81.0386667 55.344,80.6506667 55.344,80.208 C55.344,79.76 55.432,79.3693333 55.608,79.036 C55.784,78.7026667 56.0266667,78.4453333 56.336,78.264 C56.6453333,78.0826667 56.9946667,77.992 57.384,77.992 C57.7893333,77.992 58.1373333,78.0826667 58.428,78.264 C58.7186667,78.4453333 58.9413333,78.704 59.096,79.04 L59.096,79.04 L59.968,79.04 C59.76,78.5013333 59.4293333,78.0853333 58.976,77.792 C58.5226667,77.4986667 57.992,77.352 57.384,77.352 C56.8666667,77.352 56.396,77.4746667 55.972,77.72 C55.548,77.9653333 55.2133333,78.3053333 54.968,78.74 C54.7226667,79.1746667 54.6,79.664 54.6,80.208 C54.6,80.752 54.7226667,81.24 54.968,81.672 C55.2133333,82.104 55.548,82.4413333 55.972,82.684 C56.396,82.9266667 56.8666667,83.048 57.384,83.048 Z M60.488,77.128 L62.192,76.216 L62.192,75.584 L60.488,76.584 L60.488,77.128 Z M61.776,83 L61.776,77.424 L61.048,77.424 L61.048,83 L61.776,83 Z M63.432,83 L63.88,81.76 L66.312,81.76 L66.76,83 L67.528,83 L65.52,77.456 L64.68,77.456 L62.664,83 L63.432,83 Z M66.104,81.168 L64.088,81.168 L65.096,78.352 L66.104,81.168 Z"/><path fill="#162135" d="M60.283 24.0003171 60.2874996 24.523491C60.2874996 28.7368425 59.1994042 32.447833 57.0232136 35.6564623 54.9340706 38.7367464 51.9674875 41.1449685 48.1234643 42.8811286L47.6383915 43.0946483 66 71 38.0495514 71 24.1763361 46.4005088 23.4622735 46.4005088 23.4622735 71 .000218163294 71 0 53.9123171 60.283 24.0003171ZM37.7516452 0C41.2468897 0 44.7253301.338828197 48.1869664 1.01648459 51.6486027 1.69414099 54.7405497 2.88810701 57.4628074 4.59838267 60.1850651 6.30865833 62.386397 8.59978233 64.066803 11.4717547 64.9359092 12.9571392 65.5802645 14.636742 65.9998688 16.510563L7 46.001 7.00021563 0 37.7516452 0ZM35.735158 17.9094904 29.9881695 17.9094904 29.9881695 28.9456088 34.7269144 28.9456088C35.5335093 28.9456088 36.4241245 28.8810701 37.3987599 28.7519927 38.3733954 28.6229153 39.2808147 28.3486258 40.1210176 27.9291242 40.9612206 27.5096227 41.6669912 26.9287743 42.2383292 26.1865792 42.8096672 25.4443841 43.0953362 24.4601689 43.0953362 23.2339335 43.0953362 22.0076981 42.8600794 21.0396176 42.3895657 20.3296918 41.9190521 19.6197661 41.3141059 19.0873218 40.5747273 18.7323589 39.8353486 18.377396 39.0287538 18.1515106 38.1549426 18.0547025 37.2811315 17.9578944 36.4745367 17.9094904 35.735158 17.9094904Z" transform="translate(1)"/></g></svg>